{"accessors":[{"bufferView":0,"byteOffset":0,"componentType":5126,"count":243,"max":[11,1.5,7.5],"min":[-11,-1.5,-7.5],"normalized":false,"type":"VEC3"},{"bufferView":1,"byteOffset":0,"componentType":5126,"count":243,"max":[0.0000915681011974812,0,1,1],"min":[-1,-1,-1,-1],"normalized":false,"type":"VEC4"},{"bufferView":2,"byteOffset":0,"componentType":5126,"count":243,"max":[1,1,1],"min":[-1,-1,-1],"normalized":false,"type":"VEC3"},{"bufferView":3,"byteOffset":0,"componentType":5126,"count":243,"max":[1,1],"min":[0,0],"normalized":false,"type":"VEC2"},{"bufferView":4,"byteOffset":0,"componentType":5123,"count":243,"max":[242],"min":[0],"normalized":false,"type":"SCALAR"},{"bufferView":5,"byteOffset":0,"componentType":5126,"count":60,"max":[6.5,1.5,5],"min":[1.7240161895752,-1.5,-5],"normalized":false,"type":"VEC3"},{"bufferView":6,"byteOffset":0,"componentType":5126,"count":60,"max":[0,0,0.0000763009302318096,1],"min":[-1,-1,-1,-1],"normalized":false,"type":"VEC4"},{"bufferView":7,"byteOffset":0,"componentType":5126,"count":60,"max":[1,1,1],"min":[-1,-1,-1],"normalized":false,"type":"VEC3"},{"bufferView":8,"byteOffset":0,"componentType":5126,"count":60,"max":[1,1],"min":[0,0],"normalized":false,"type":"VEC2"},{"bufferView":9,"byteOffset":0,"componentType":5123,"count":60,"max":[59],"min":[0],"normalized":false,"type":"SCALAR"},{"bufferView":10,"byteOffset":0,"componentType":5126,"count":126,"max":[13.5,1.5,9.5],"min":[-13.5,-1.5,-9.5],"normalized":false,"type":"VEC3"},{"bufferView":11,"byteOffset":0,"componentType":5126,"count":126,"max":[0,0,0.0000763009302318096,1],"min":[-1,-1,-1,-1],"normalized":false,"type":"VEC4"},{"bufferView":12,"byteOffset":0,"componentType":5126,"count":126,"max":[1,1,1],"min":[-1,-1,-1],"normalized":false,"type":"VEC3"},{"bufferView":13,"byteOffset":0,"componentType":5126,"count":126,"max":[1,1],"min":[0,0],"normalized":false,"type":"VEC2"},{"bufferView":14,"byteOffset":0,"componentType":5123,"count":126,"max":[125],"min":[0],"normalized":false,"type":"SCALAR"},{"bufferView":15,"byteOffset":0,"componentType":5126,"count":60,"max":[4.5,1.5,-1.87563323974609],"min":[-4.5,-1.5,-15.5],"normalized":false,"type":"VEC3"},{"bufferView":16,"byteOffset":0,"componentType":5126,"count":60,"max":[0,0,0.0000763009302318096,1],"min":[-1,-1,-1,-1],"normalized":false,"type":"VEC4"},{"bufferView":17,"byteOffset":0,"componentType":5126,"count":60,"max":[1,1,1],"min":[-1,-1,-1],"normalized":false,"type":"VEC3"},{"bufferView":18,"byteOffset":0,"componentType":5126,"count":60,"max":[1,1],"min":[0,0],"normalized":false,"type":"VEC2"},{"bufferView":19,"byteOffset":0,"componentType":5123,"count":60,"max":[59],"min":[0],"normalized":false,"type":"SCALAR"},{"bufferView":20,"byteOffset":0,"componentType":5126,"count":1074,"max":[27.5,4.5,5.5],"min":[-36.5,-1.5,-32.5],"normalized":false,"type":"VEC3"},{"bufferView":21,"byteOffset":0,"componentType":5126,"count":1074,"max":[0.000229000623221509,0.0184912011027336,1,1],"min":[-1,-1,-1,1],"normalized":false,"type":"VEC4"},{"bufferView":22,"byteOffset":0,"componentType":5126,"count":1074,"max":[1,1,1],"min":[-1,-1,-1],"normalized":false,"type":"VEC3"},{"bufferView":23,"byteOffset":0,"componentType":5126,"count":1074,"max":[1,1],"min":[0,0],"normalized":false,"type":"VEC2"},{"bufferView":24,"byteOffset":0,"componentType":5123,"count":1074,"max":[1073],"min":[0],"normalized":false,"type":"SCALAR"}],"asset":{"generator":"Godot Engine v4.3.stable.official@77dcf97d82cbfe4e4615475fa52ca03da645dbd8","version":"2.0"},"bufferViews":[{"buffer":0,"byteLength":2916,"byteOffset":0,"byteStride":12,"target":34962},{"buffer":0,"byteLength":3888,"byteOffset":2916,"byteStride":16,"target":34962},{"buffer":0,"byteLength":2916,"byteOffset":6804,"byteStride":12,"target":34962},{"buffer":0,"byteLength":1944,"byteOffset":9720,"byteStride":8,"target":34962},{"buffer":0,"byteLength":486,"byteOffset":11664,"target":34963},{"buffer":0,"byteLength":720,"byteOffset":12152,"byteStride":12,"target":34962},{"buffer":0,"byteLength":960,"byteOffset":12872,"byteStride":16,"target":34962},{"buffer":0,"byteLength":720,"byteOffset":13832,"byteStride":12,"target":34962},{"buffer":0,"byteLength":480,"byteOffset":14552,"byteStride":8,"target":34962},{"buffer":0,"byteLength":120,"byteOffset":15032,"target":34963},{"buffer":0,"byteLength":1512,"byteOffset":15152,"byteStride":12,"target":34962},{"buffer":0,"byteLength":2016,"byteOffset":16664,"byteStride":16,"target":34962},{"buffer":0,"byteLength":1512,"byteOffset":18680,"byteStride":12,"target":34962},{"buffer":0,"byteLength":1008,"byteOffset":20192,"byteStride":8,"target":34962},{"buffer":0,"byteLength":252,"byteOffset":21200,"target":34963},{"buffer":0,"byteLength":720,"byteOffset":21452,"byteStride":12,"target":34962},{"buffer":0,"byteLength":960,"byteOffset":22172,"byteStride":16,"target":34962},{"buffer":0,"byteLength":720,"byteOffset":23132,"byteStride":12,"target":34962},{"buffer":0,"byteLength":480,"byteOffset":23852,"byteStride":8,"target":34962},{"buffer":0,"byteLength":120,"byteOffset":24332,"target":34963},{"buffer":0,"byteLength":12888,"byteOffset":24452,"byteStride":12,"target":34962},{"buffer":0,"byteLength":17184,"byteOffset":37340,"byteStride":16,"target":34962},{"buffer":0,"byteLength":12888,"byteOffset":54524,"byteStride":12,"target":34962},{"buffer":0,"byteLength":8592,"byteOffset":67412,"byteStride":8,"target":34962},{"buffer":0,"byteLength":2148,"byteOffset":76004,"target":34963}],"buffers":[{"byteLength":78152,"uri":"main_level0.bin"}],"extensions":{"KHR_lights_punctual":{"lights":[{"color":[1,1,1],"intensity":1,"range":340282346638528860000000000000000000000,"type":"directional"}]}},"extensionsUsed":["GODOT_single_root","KHR_lights_punctual"],"images":[{"uri":"textures%2F_albedo000.png"}],"materials":[{"extensions":{},"pbrMetallicRoughness":{"baseColorFactor":[0.99999988079071,0.99999988079071,0.99999988079071,1],"baseColorTexture":{"index":0},"metallicFactor":0,"roughnessFactor":1}}],"meshes":[{"extras":{"targetNames":[]},"primitives":[{"attributes":{"NORMAL":2,"POSITION":0,"TANGENT":1,"TEXCOORD_0":3},"indices":4,"material":0,"mode":4}]},{"extras":{"targetNames":[]},"primitives":[{"attributes":{"NORMAL":7,"POSITION":5,"TANGENT":6,"TEXCOORD_0":8},"indices":9,"material":0,"mode":4}]},{"extras":{"targetNames":[]},"primitives":[{"attributes":{"NORMAL":12,"POSITION":10,"TANGENT":11,"TEXCOORD_0":13},"indices":14,"material":0,"mode":4}]},{"extras":{"targetNames":[]},"primitives":[{"attributes":{"NORMAL":17,"POSITION":15,"TANGENT":16,"TEXCOORD_0":18},"indices":19,"material":0,"mode":4}]},{"extras":{"targetNames":[]},"primitives":[{"attributes":{"NORMAL":22,"POSITION":20,"TANGENT":21,"TEXCOORD_0":23},"indices":24,"material":0,"mode":4}]}],"nodes":[{"children":[1,2,3,6,8,10,12,24],"name":"MainLevel"},{"name":"WorldEnvironment"},{"extensions":{"KHR_lights_punctual":{"light":0}},"name":"DirectionalLight3D","rotation":[-0.12941066920757,0.836515367031097,0.482963532209396,0.22414530813694]},{"children":[4,5],"mesh":0,"name":"Overhang2","translation":[-20,1.5,11.5]},{"name":"Overhang22","translation":[3.58977890014648,0,4.4792594909668]},{"name":"Corridor7","rotation":[0,0.70710676908493,0,0.70710676908493],"translation":[-5,-0.25,-6.70309543609619]},{"children":[7],"mesh":1,"name":"Overhang24","translation":[-25.3869304656982,1.5,-5]},{"name":"Overhang3","translation":[-4.7759838104248,0,0]},{"children":[9],"mesh":2,"name":"Overhang33","translation":[1.5,1.5,-9.5]},{"name":"Overhang4","translation":[-0.19989013671875,0,0.422454833984375]},{"children":[11],"mesh":3,"name":"Overhang43","translation":[27.5,1.5,-0.5]},{"name":"Overhang5","translation":[0,0,9.08573150634766]},{"children":[13],"mesh":4,"name":"Room2","translation":[4.5,1.5,13.5]},{"children":[14,15,16,17,18,19,20,21,22,23],"name":"CSGCombiner3D"},{"name":"Room22","translation":[-24.5,1.5,-2]},{"name":"Corridor","translation":[-9.5,-0.25,0]},{"name":"Corridor2","rotation":[0,0.70710676908493,0,0.70710676908493],"translation":[-29.5,-0.25,-9.27733898162842]},{"name":"Corridor3","rotation":[0,0.70710676908493,0,0.70710676908493],"translation":[-29.5,2.75,-9.28700828552246]},{"name":"Corridor4","translation":[-19.5,2.75,-18]},{"name":"Corridor5","rotation":[0,0.70710676908493,0,0.70710676908493],"translation":[-12.5,2.75,-9.5]},{"name":"Corridor6","translation":[14.5,2.75,-23.5]},{"name":"Room3","translation":[-30,1.5,-18.5]},{"name":"Room4","translation":[-3,1.5,-23]},{"name":"Room5","translation":[23,1.5,-14]},{"name":"Sprite3D","scale":[2.40000009536743,2.40000009536743,2.40000009536743],"translation":[0,0.100000001490116,0]}],"samplers":[{"magFilter":9729,"minFilter":9987,"wrapS":10497,"wrapT":10497}],"scene":0,"scenes":[{"nodes":[0]}],"textures":[{"sampler":0,"source":0}]}